<?xml version="1.0" encoding="utf-8"?>
<!-- Generator: Adobe Illustrator 21.1.0, SVG Export Plug-In . SVG Version: 6.00 Build 0)  -->
<svg version="1.1" id="Calque_1" xmlns="http://www.w3.org/2000/svg" xmlns:xlink="http://www.w3.org/1999/xlink" x="0px" y="0px"
	 viewBox="0 0 940 834.1" style="enable-background:new 0 0 940 834.1;" xml:space="preserve">
<style type="text/css">
	.st0{fill:none;stroke:#FFFFFF;stroke-width:40;stroke-miterlimit:10;}
</style>
<title>briefcase</title>
<path class="st0" d="M807.5,656.2c0,17.6-14.2,31.8-31.8,31.8l0,0H188.8c-17.6,0-31.8-14.2-31.8-31.8l0,0V245.6
	c0-17.6,14.2-31.8,31.8-31.8h586.9c17.6,0,31.8,14.2,31.8,31.8V656.2z M601.5,213.8C578.8,106.4,480,114.2,480,114.2
	s-98.6-5.6-117,99.7 M807.5,322.3H157 M571.2,322.3H393.4V362c0,17.6,14.2,31.8,31.8,31.8h114.2c17.6,0,31.8-14.2,31.8-31.8V322.3z"
	/>
</svg>
