<?xml version="1.0" encoding="utf-8"?>
<!-- Generator: Adobe Illustrator 21.1.0, SVG Export Plug-In . SVG Version: 6.00 Build 0)  -->
<svg version="1.1" id="Calque_1" xmlns="http://www.w3.org/2000/svg" xmlns:xlink="http://www.w3.org/1999/xlink" x="0px" y="0px"
	 viewBox="0 0 90 112.5" style="enable-background:new 0 0 90 112.5;" xml:space="preserve">
<style type="text/css">
	.st0{fill:#FFFFFF;stroke:#FFFFFF;stroke-miterlimit:10;}
</style>
<g>
	<path class="st0" d="M58.8,44.3H46V17c0-1.2-1-2.2-2.2-2.2s-2.2,1-2.2,2.2v29.5c0,1.2,1,2.2,2.2,2.2h15c1.2,0,2.2-1,2.2-2.2
		S60,44.3,58.8,44.3z"/>
	<path class="st0" d="M45,1.9C21.2,1.9,1.8,21.3,1.8,45.1S21.2,88.3,45,88.3s43.2-19.4,43.2-43.2S68.8,1.9,45,1.9z M45,84
		C23.6,84,6.1,66.5,6.1,45.1S23.6,6.2,45,6.2s38.9,17.4,38.9,38.9C83.9,66.5,66.4,84,45,84z"/>
</g>
</svg>
