<?xml version="1.0" encoding="utf-8"?>
<!-- Generator: Adobe Illustrator 21.1.0, SVG Export Plug-In . SVG Version: 6.00 Build 0)  -->
<svg version="1.1" id="Calque_1" xmlns="http://www.w3.org/2000/svg" xmlns:xlink="http://www.w3.org/1999/xlink" x="0px" y="0px"
	 viewBox="0 0 34 41.2" style="enable-background:new 0 0 34 41.2;" xml:space="preserve">
<style type="text/css">
	.st0{fill:#FFFFFF;}
</style>
<title>Shape</title>
<desc>Created with Sketch.</desc>
<path class="st0" d="M25,0c-3.6,0-5.9,1.4-8,4.7C14.9,1.4,12.7,0,9,0C4,0,0,3.9,0,8.7c0,3.8,1.8,7.7,5.2,12.1
	c2.5,3.2,5.1,5.8,11.1,11.6l0.7,0.7l0.7-0.7c6-5.8,8.6-8.4,11.1-11.6c3.4-4.4,5.2-8.3,5.2-12.1C34,3.9,30,0,25,0z M27.2,19.6
	c-2.4,3-4.8,5.5-10.2,10.7C11.5,25,9.1,22.6,6.8,19.6C3.6,15.5,2,12,2,8.7C2,5,5.1,2,9,2c3.3,0,5.1,1.4,7.1,5.2L17,8.9l0.9-1.7
	C19.9,3.4,21.7,2,25,2c3.9,0,7,3,7,6.7C32,12,30.4,15.5,27.2,19.6z"/>
</svg>
