<?xml version="1.0" encoding="utf-8"?>
<!-- Generator: Adobe Illustrator 21.1.0, SVG Export Plug-In . SVG Version: 6.00 Build 0)  -->
<svg version="1.1" id="Calque_1" xmlns="http://www.w3.org/2000/svg" xmlns:xlink="http://www.w3.org/1999/xlink" x="0px" y="0px"
	 viewBox="0 0 48 60" style="enable-background:new 0 0 48 60;" xml:space="preserve">
<style type="text/css">
	.st0{fill:#FFFFFF;}
</style>
<g>
	<path class="st0" d="M37.9,46.4c-0.2,0-0.4-0.1-0.6-0.2L24,36.5l-13.3,9.7c-0.4,0.3-0.8,0.3-1.2,0C9.2,46,9,45.5,9.1,45.1l5.1-15.7
		L0.9,19.8c-0.4-0.3-0.5-0.7-0.4-1.1S1,18,1.5,18H18l5-15.7c0.1-0.4,0.5-0.7,1-0.7s0.8,0.3,1,0.7l5,15.6h16.5c0.4,0,0.8,0.3,1,0.7
		c0.1,0.4,0,0.9-0.4,1.1l-13.3,9.7l5.1,15.7c0.1,0.4,0,0.9-0.4,1.1C38.3,46.3,38.1,46.4,37.9,46.4z M24,34.3c0.2,0,0.4,0.1,0.6,0.2
		L36,42.8l-4.4-13.4c-0.1-0.4,0-0.9,0.4-1.1L43.4,20H29.3c-0.4,0-0.8-0.3-1-0.7L24,5.8l-4.4,13.4c-0.1,0.4-0.5,0.7-1,0.7h-14
		L16,28.2c0.4,0.3,0.5,0.7,0.4,1.1L12,42.8l11.4-8.3C23.6,34.4,23.8,34.3,24,34.3z"/>
</g>
</svg>
